Coordinates
version=1
nRows=22
nColumns=24
inDegrees=yes

Units are S.I. units (second, meters, Newtons, ...)
Angles are in degrees.

endheader
time	pelvis_tilt	pelvis_list	pelvis_rotation	pelvis_tx	pelvis_ty	pelvis_tz	hip_flexion_r	hip_adduction_r	hip_rotation_r	knee_angle_r	ankle_angle_r	subtalar_angle_r	mtp_angle_r	hip_flexion_l	hip_adduction_l	hip_rotation_l	knee_angle_l	ankle_angle_l	subtalar_angle_l	mtp_angle_l	lumbar_extension	lumbar_bending	lumbar_rotation
      5.17000000	      1.49066606	      8.18549520	     23.92543715	     -1.28161486	      0.65250301	      0.20140379	     21.67669019	    -14.75512338	    -15.61134150	    -12.44679277	     -6.60995505	    -22.10478080	      0.00000000	    -20.91219114	      1.07720006	     22.11078938	    -15.96170134	     19.43190657	     -0.03512989	      0.00000000	    -20.21774016	     -7.19652779	    -21.22943559
      5.18000000	      1.29550698	      7.31739213	     23.81407948	     -1.26755455	      0.65187271	      0.20200024	     21.98064798	    -13.70075550	    -15.40168519	    -14.06953837	     -7.37942036	    -24.27662580	      0.00000000	    -21.04372235	     -0.07151576	     21.65225421	    -16.59327898	     17.91563065	      0.19946324	      0.00000000	    -19.12334341	     -6.57009057	    -20.78727702
      5.19000000	      1.33025767	      6.27270802	     23.46386808	     -1.25363132	      0.65161400	      0.20292386	     22.37380666	    -12.33425824	    -15.26645060	    -16.14260926	     -7.06069207	    -25.30312619	      0.00000000	    -21.23006556	     -1.35880449	     20.84668868	    -17.36018863	     16.12655383	      0.31401897	      0.00000000	    -18.28534821	     -5.68813861	    -20.20173195
      5.20000000	      1.47027782	      5.08784892	     22.84050337	     -1.23987388	      0.65154673	      0.20432767	     22.85099599	    -10.58432836	    -14.47366566	    -18.35211225	     -6.57568634	    -26.76516904	      0.00000000	    -21.27820864	     -2.69235529	     19.47072453	    -18.46011193	     14.32813694	      0.95044464	      0.00000000	    -17.62134908	     -4.67572365	    -19.39852551
      5.21000000	      1.60642790	      3.80004358	     22.09365018	     -1.22630407	      0.65164251	      0.20591644	     23.40083568	     -8.67526734	    -13.78536857	    -20.60227671	     -5.41928960	    -27.44166861	      0.00000000	    -21.15794408	     -3.98867238	     18.00494718	    -19.77783897	     11.94160208	      0.96035418	      0.00000000	    -17.01670564	     -3.53751272	    -18.64677831
      5.22000000	      1.78402189	      2.45639838	     21.29642594	     -1.21295697	      0.65189768	      0.20767318	     23.74010891	     -6.58752194	    -13.02723404	    -22.49964648	     -3.98344347	    -27.92075490	      0.00000000	    -20.78489076	     -5.27423806	     16.27169914	    -21.56050078	      9.29055491	      1.04775801	      0.00000000	    -16.56424493	     -2.28192164	    -17.99811376
      5.23000000	      2.06637354	      1.06742051	     20.55464574	     -1.19980835	      0.65231772	      0.20950232	     23.70795265	     -4.38002770	    -12.46874776	    -23.93706066	     -2.07288999	    -27.93549308	      0.00000000	    -20.19000076	     -6.63842819	     14.30792161	    -23.82026036	      6.51459425	      1.30631112	      0.00000000	    -16.31960681	     -0.87551934	    -17.64870211
      5.24000000	      2.15381959	     -0.23400927	     19.95823339	     -1.18699720	      0.65273866	      0.21122725	     23.50627274	     -2.31978558	    -11.98582917	    -24.76401869	     -0.81781677	    -28.34764388	      0.00000000	    -19.06572916	     -7.79928115	     12.70247294	    -26.57456095	      3.00079290	      0.74301469	      0.00000000	    -15.99377355	      0.44580605	    -17.51252261
      5.25000000	      2.29736969	     -1.48280242	     19.42783352	     -1.17456704	      0.65320931	      0.21291625	     22.98379779	     -0.28784203	    -11.58424963	    -25.12963721	      0.43690919	    -28.71066948	      0.00000000	    -17.62274173	     -8.88271316	     11.26368420	    -29.88596579	     -0.64553277	     -0.50625489	      0.00000000	    -15.86375590	      1.81430275	    -17.55828381
      5.26000000	      2.39199863	     -2.64339143	     18.98576841	     -1.16261555	      0.65367600	      0.21450907	     22.27447338	      1.61345725	    -11.25458944	    -25.06785467	      1.49091639	    -29.04960788	      0.00000000	    -15.73696913	     -9.78883798	     10.22834056	    -33.75818561	     -4.39072315	     -2.39875761	      0.00000000	    -15.81503503	      3.13171286	    -17.66623098
      5.27000000	      2.41454810	     -3.54036049	     18.55541816	     -1.15129426	      0.65409053	      0.21592739	     21.53572020	      3.16943067	    -10.92023125	    -24.93720896	      2.54961514	    -29.30426275	      0.00000000	    -13.50038536	    -10.21509781	      9.76846570	    -38.07641765	     -8.19447486	     -5.46358360	      0.00000000	    -15.90479965	      4.21553817	    -17.84982359
      5.28000000	      2.36923549	     -4.54536434	     18.03992675	     -1.14054438	      0.65425845	      0.21732883	     20.90371043	      4.75893925	    -10.72740472	    -24.72565688	      3.50765595	    -29.34801294	      0.00000000	    -10.76765685	    -10.62412869	      9.33238344	    -42.95428516	    -11.06673705	     -8.47992954	      0.00000000	    -16.00527266	      5.42133613	    -17.78136297
      5.29000000	      2.29752602	     -5.60005063	     17.39710863	     -1.13032409	      0.65425132	      0.21866564	     20.35261234	      6.33066105	    -10.65035855	    -24.53783688	      4.54988049	    -29.06334043	      0.00000000	     -7.74665820	    -10.93161363	      9.00763744	    -48.10752779	    -13.01633132	    -11.60035531	      0.00000000	    -16.19135269	      6.69905511	    -17.45694026
      5.30000000	      2.22025366	     -6.70569951	     16.58983853	     -1.12048830	      0.65413889	      0.21995837	     19.83470380	      7.90444086	    -10.66253134	    -24.37299986	      5.80053552	    -28.30833280	      0.00000000	     -4.58433580	    -11.16909030	      8.72411388	    -53.27736386	    -13.92500169	    -14.60825546	      0.00000000	    -16.47176883	      8.03458017	    -16.85952494
      5.31000000	      2.15412944	     -7.80827383	     15.61778945	     -1.11086867	      0.65403512	      0.22122467	     19.27735623	      9.43382959	    -10.77015299	    -24.22091575	      7.32952615	    -26.95782470	      0.00000000	     -1.41550698	    -11.33565485	      8.43358143	    -58.22119040	    -13.75958919	    -17.19360831	      0.00000000	    -16.86030899	      9.35109758	    -16.04995274
      5.32000000	      2.17660642	     -8.80584217	     14.44091434	     -1.10129617	      0.65412286	      0.22256505	     18.52481035	     10.87673918	    -10.84412294	    -24.05947721	      9.15781665	    -25.08778630	      0.00000000	      1.55318399	    -11.40608347	      8.04597959	    -62.73410376	    -12.52219355	    -18.87847943	      0.00000000	    -17.46364529	     10.50372285	    -14.92900080
      5.33000000	      2.16239604	     -9.69397319	     13.29141778	     -1.09174382	      0.65434787	      0.22387242	     17.63510376	     12.18909136	    -10.81833287	    -23.69819346	     10.37243636	    -23.82194931	      0.00000000	      4.50942868	    -11.34900589	      7.83843889	    -66.75717833	    -10.55862028	    -19.75435535	      0.00000000	    -18.05428403	     11.49316864	    -13.81297395
      5.34000000	      2.11754638	    -10.32773265	     12.05096657	     -1.08211004	      0.65483195	      0.22529032	     16.57277325	     13.26429159	    -10.55412346	    -23.22180516	     11.67090366	    -22.31505677	      0.00000000	      7.32546740	    -11.05376944	      7.62666982	    -70.16393961	     -8.04307107	    -19.72242505	      0.00000000	    -18.64654942	     12.10037266	    -12.65932976
      5.35000000	      2.00955988	    -10.74190781	     10.81993474	     -1.07243444	      0.65549979	      0.22680107	     15.42099139	     14.11162013	    -10.11676724	    -22.63922991	     12.79674706	    -20.98676860	      0.00000000	     10.09600172	    -10.57942810	      7.46858131	    -72.97049659	     -5.38778383	    -19.08830064	      0.00000000	    -19.14991270	     12.38549707	    -11.57547000
      5.36000000	      1.80769933	    -10.97979475	      9.62211896	     -1.06274503	      0.65626943	      0.22842281	     14.25080198	     14.77145043	     -9.50563111	    -21.95676499	     13.72840583	    -19.90271677	      0.00000000	     12.88234561	     -9.99697011	      7.35132189	    -75.19730316	     -2.79276348	    -18.11499061	      0.00000000	    -19.49520179	     12.40327059	    -10.57839272
      5.37000000	      1.51475916	    -11.08939621	      8.46239606	     -1.05309960	      0.65705745	      0.23016287	     13.11853892	     15.28955671	     -8.75335365	    -21.23001677	     14.50031543	    -19.06459128	      0.00000000	     15.70322048	     -9.38461398	      7.24534737	    -76.87252124	     -0.41353013	    -17.19677358	      0.00000000	    -19.67250726	     12.22211489	     -9.66103486
      5.38000000	      1.13728190	    -11.10535158	      7.30719677	     -1.04352759	      0.65781176	      0.23204492	     12.03934336	     15.71039104	     -7.81769285	    -20.47703951	     15.09874240	    -18.44755660	      0.00000000	     18.54548776	     -8.81486992	      7.08436430	    -77.99936444	      1.52578698	    -16.80850638	      0.00000000	    -19.69352981	     11.87580524	     -8.79316814
